<?xml version="1.0" standalone="no"?>
<!DOCTYPE svg PUBLIC "-//W3C//DTD SVG 20010904//EN"
 "http://www.w3.org/TR/2001/REC-SVG-20010904/DTD/svg10.dtd">
<svg version="1.0" xmlns="http://www.w3.org/2000/svg"
 width="800.000000pt" height="800.000000pt" viewBox="0 0 800.000000 800.000000"
 preserveAspectRatio="xMidYMid meet">

<g transform="translate(0.000000,800.000000) scale(0.100000,-0.100000)"
fill="#FFF" stroke="none">
<path d="M1660 6989 c-443 -38 -811 -371 -901 -814 -16 -80 -25 -3333 -10
-3505 14 -145 39 -239 101 -365 152 -313 441 -515 795 -555 58 -6 795 -10
2066 -10 l1977 0 588 -471 c324 -260 605 -479 624 -487 19 -8 62 -15 95 -15
105 -1 200 68 237 171 19 54 19 5101 0 5212 -72 420 -392 745 -817 831 -71 15
-4594 22 -4755 8z m4715 -514 c80 -21 146 -59 210 -120 68 -66 111 -133 136
-215 19 -64 19 -101 17 -2331 l-3 -2267 -443 354 -442 354 -2118 2 -2117 3
-78 37 c-107 51 -194 138 -245 245 l-37 78 -3 1735 -2 1734 21 63 c39 119 130
228 240 288 105 57 -47 54 2479 54 2059 1 2333 -1 2385 -14z"/>
<path d="M2700 5490 c-135 -17 -201 -95 -203 -238 0 -103 48 -167 178 -229
l69 -33 1257 0 c801 0 1276 4 1310 10 67 13 126 53 153 105 17 32 21 58 21
126 0 75 -3 90 -25 122 -32 47 -94 92 -170 123 l-60 24 -1237 -1 c-681 -1
-1263 -5 -1293 -9z"/>
<path d="M2700 3990 c-135 -17 -201 -95 -203 -238 0 -103 48 -167 178 -229
l69 -33 1257 0 c801 0 1276 4 1310 10 67 13 126 53 153 105 17 32 21 58 21
126 0 75 -3 90 -25 122 -32 47 -94 92 -170 123 l-60 24 -1237 -1 c-681 -1
-1263 -5 -1293 -9z"/>
</g>
</svg>
